{
	"asset":{
		"version":"2.0",
		"generator":"Created using the official Cinema 4D glTF Exporter 1.000x284978"
	},
	"scenes":[{
		"nodes":[0]
	}],
	"nodes":[{
		"name":"Logo",
		"translation":[0.0,
		3.6658942699432375,
		0.0],
		"rotation":[0.0,
		0.0,
		0.0,
		-1.0],
		"scale":[1.0,
		1.0,
		1.0],
		"children":[1,
		6,
		17,
		28]
	},
	{
		"name":"(A) Extrude",
		"translation":[0.9300350546836853,
		3.6658942699432375,
		2.220446049250313e-16],
		"rotation":[0.0,
		-2.7755575615628916e-17,
		0.0,
		-1.0],
		"scale":[1.0,
		1.0,
		1.0],
		"children":[2,
		4],
		"mesh":0
	},
	{
		"name":"Rounding 1",
		"children":[3],
		"mesh":1
	},
	{
		"name":"Cap 1",
		"mesh":2
	},
	{
		"name":"Rounding 2",
		"children":[5],
		"mesh":3
	},
	{
		"name":"Cap 2",
		"mesh":4
	},
	{
		"name":"(K) Null",
		"translation":[5.0149312019348148,
		-2.0435571670532228,
		2.220446049250313e-16],
		"rotation":[0.0,
		-2.7755575615628916e-17,
		0.0,
		-1.0],
		"scale":[1.0,
		1.0,
		1.0],
		"children":[7,
		12]
	},
	{
		"name":"(K.2) Extrude",
		"translation":[0.9155020713806152,
		-4.440892098500626e-16,
		6.661338147750939e-16],
		"rotation":[0.0,
		0.0,
		0.0,
		-1.0],
		"scale":[1.0,
		1.0,
		1.0],
		"children":[8,
		10],
		"mesh":5
	},
	{
		"name":"Rounding 1",
		"children":[9],
		"mesh":6
	},
	{
		"name":"Cap 1",
		"mesh":7
	},
	{
		"name":"Rounding 2",
		"children":[11],
		"mesh":8
	},
	{
		"name":"Cap 2",
		"mesh":9
	},
	{
		"name":"(K.1) Extrude",
		"translation":[-0.9155020713806152,
		-4.440892098500626e-16,
		4.440892098500626e-16],
		"rotation":[0.0,
		0.0,
		0.0,
		-1.0],
		"scale":[1.0,
		1.0,
		1.0],
		"children":[13,
		15],
		"mesh":10
	},
	{
		"name":"Rounding 1",
		"children":[14],
		"mesh":11
	},
	{
		"name":"Cap 1",
		"mesh":12
	},
	{
		"name":"Rounding 2",
		"children":[16],
		"mesh":13
	},
	{
		"name":"Cap 2",
		"mesh":14
	},
	{
		"name":"(E) Null",
		"translation":[-5.0149312019348148,
		-3.6658942699432375,
		4.440892098500626e-16],
		"rotation":[0.0,
		-2.7755575615628916e-17,
		0.0,
		-1.0],
		"scale":[1.0,
		1.0,
		1.0],
		"children":[18,
		23]
	},
	{
		"name":"(E 2) Extrude",
		"translation":[6.896859169006348,
		1.622336983680725,
		2.220446049250313e-16],
		"rotation":[0.0,
		0.0,
		0.0,
		-1.0],
		"scale":[1.0,
		1.0,
		1.0],
		"children":[19,
		21],
		"mesh":15
	},
	{
		"name":"Rounding 1",
		"children":[20],
		"mesh":16
	},
	{
		"name":"Cap 1",
		"mesh":17
	},
	{
		"name":"Rounding 2",
		"children":[22],
		"mesh":18
	},
	{
		"name":"Cap 2",
		"mesh":19
	},
	{
		"name":"(E 1) Extrude",
		"translation":[3.9103646278381349,
		1.622336983680725,
		6.661338147750939e-16],
		"rotation":[0.0,
		0.0,
		0.0,
		-1.0],
		"scale":[1.0,
		1.0,
		1.0],
		"children":[24,
		26],
		"mesh":20
	},
	{
		"name":"Rounding 1",
		"children":[25],
		"mesh":21
	},
	{
		"name":"Cap 1",
		"mesh":22
	},
	{
		"name":"Rounding 2",
		"children":[27],
		"mesh":23
	},
	{
		"name":"Cap 2",
		"mesh":24
	},
	{
		"name":"(L) Extrude",
		"translation":[-4.20937967300415,
		-2.0435571670532228,
		4.440892098500626e-16],
		"rotation":[0.0,
		-2.7755575615628916e-17,
		0.0,
		-1.0],
		"scale":[1.0,
		1.0,
		1.0],
		"children":[29,
		31],
		"mesh":25
	},
	{
		"name":"Rounding 1",
		"children":[30],
		"mesh":26
	},
	{
		"name":"Cap 1",
		"mesh":27
	},
	{
		"name":"Rounding 2",
		"children":[32],
		"mesh":28
	},
	{
		"name":"Cap 2",
		"mesh":29
	}],
	"meshes":[{
		"name":"(A) Extrude",
		"primitives":[{
			"attributes":{
				"POSITION":1,
				"NORMAL":2,
				"TEXCOORD_0":3
			},
			"indices":0,
			"material":0
		}]
	},
	{
		"name":"Rounding 1",
		"primitives":[{
			"attributes":{
				"POSITION":5,
				"NORMAL":6,
				"TEXCOORD_0":7
			},
			"indices":4,
			"material":0
		}]
	},
	{
		"name":"Cap 1",
		"primitives":[{
			"attributes":{
				"POSITION":9,
				"NORMAL":10,
				"TEXCOORD_0":11
			},
			"indices":8,
			"material":0
		}]
	},
	{
		"name":"Rounding 2",
		"primitives":[{
			"attributes":{
				"POSITION":13,
				"NORMAL":14,
				"TEXCOORD_0":15
			},
			"indices":12,
			"material":0
		}]
	},
	{
		"name":"Cap 2",
		"primitives":[{
			"attributes":{
				"POSITION":17,
				"NORMAL":18,
				"TEXCOORD_0":19
			},
			"indices":16,
			"material":0
		}]
	},
	{
		"name":"(K.2) Extrude",
		"primitives":[{
			"attributes":{
				"POSITION":21,
				"NORMAL":22,
				"TEXCOORD_0":23
			},
			"indices":20,
			"material":1
		}]
	},
	{
		"name":"Rounding 1",
		"primitives":[{
			"attributes":{
				"POSITION":25,
				"NORMAL":26,
				"TEXCOORD_0":27
			},
			"indices":24,
			"material":1
		}]
	},
	{
		"name":"Cap 1",
		"primitives":[{
			"attributes":{
				"POSITION":29,
				"NORMAL":30,
				"TEXCOORD_0":31
			},
			"indices":28,
			"material":1
		}]
	},
	{
		"name":"Rounding 2",
		"primitives":[{
			"attributes":{
				"POSITION":33,
				"NORMAL":34,
				"TEXCOORD_0":35
			},
			"indices":32,
			"material":1
		}]
	},
	{
		"name":"Cap 2",
		"primitives":[{
			"attributes":{
				"POSITION":37,
				"NORMAL":38,
				"TEXCOORD_0":39
			},
			"indices":36,
			"material":1
		}]
	},
	{
		"name":"(K.1) Extrude",
		"primitives":[{
			"attributes":{
				"POSITION":41,
				"NORMAL":42,
				"TEXCOORD_0":43
			},
			"indices":40,
			"material":1
		}]
	},
	{
		"name":"Rounding 1",
		"primitives":[{
			"attributes":{
				"POSITION":45,
				"NORMAL":46,
				"TEXCOORD_0":47
			},
			"indices":44,
			"material":1
		}]
	},
	{
		"name":"Cap 1",
		"primitives":[{
			"attributes":{
				"POSITION":49,
				"NORMAL":50,
				"TEXCOORD_0":51
			},
			"indices":48,
			"material":1
		}]
	},
	{
		"name":"Rounding 2",
		"primitives":[{
			"attributes":{
				"POSITION":53,
				"NORMAL":54,
				"TEXCOORD_0":55
			},
			"indices":52,
			"material":1
		}]
	},
	{
		"name":"Cap 2",
		"primitives":[{
			"attributes":{
				"POSITION":57,
				"NORMAL":58,
				"TEXCOORD_0":59
			},
			"indices":56,
			"material":1
		}]
	},
	{
		"name":"(E 2) Extrude",
		"primitives":[{
			"attributes":{
				"POSITION":61,
				"NORMAL":62,
				"TEXCOORD_0":63
			},
			"indices":60,
			"material":2
		}]
	},
	{
		"name":"Rounding 1",
		"primitives":[{
			"attributes":{
				"POSITION":65,
				"NORMAL":66,
				"TEXCOORD_0":67
			},
			"indices":64,
			"material":2
		}]
	},
	{
		"name":"Cap 1",
		"primitives":[{
			"attributes":{
				"POSITION":69,
				"NORMAL":70,
				"TEXCOORD_0":71
			},
			"indices":68,
			"material":2
		}]
	},
	{
		"name":"Rounding 2",
		"primitives":[{
			"attributes":{
				"POSITION":73,
				"NORMAL":74,
				"TEXCOORD_0":75
			},
			"indices":72,
			"material":2
		}]
	},
	{
		"name":"Cap 2",
		"primitives":[{
			"attributes":{
				"POSITION":77,
				"NORMAL":78,
				"TEXCOORD_0":79
			},
			"indices":76,
			"material":2
		}]
	},
	{
		"name":"(E 1) Extrude",
		"primitives":[{
			"attributes":{
				"POSITION":81,
				"NORMAL":82,
				"TEXCOORD_0":83
			},
			"indices":80,
			"material":3
		}]
	},
	{
		"name":"Rounding 1",
		"primitives":[{
			"attributes":{
				"POSITION":85,
				"NORMAL":86,
				"TEXCOORD_0":87
			},
			"indices":84,
			"material":3
		}]
	},
	{
		"name":"Cap 1",
		"primitives":[{
			"attributes":{
				"POSITION":89,
				"NORMAL":90,
				"TEXCOORD_0":91
			},
			"indices":88,
			"material":3
		}]
	},
	{
		"name":"Rounding 2",
		"primitives":[{
			"attributes":{
				"POSITION":93,
				"NORMAL":94,
				"TEXCOORD_0":95
			},
			"indices":92,
			"material":3
		}]
	},
	{
		"name":"Cap 2",
		"primitives":[{
			"attributes":{
				"POSITION":97,
				"NORMAL":98,
				"TEXCOORD_0":99
			},
			"indices":96,
			"material":3
		}]
	},
	{
		"name":"(L) Extrude",
		"primitives":[{
			"attributes":{
				"POSITION":101,
				"NORMAL":102,
				"TEXCOORD_0":103
			},
			"indices":100,
			"material":4
		}]
	},
	{
		"name":"Rounding 1",
		"primitives":[{
			"attributes":{
				"POSITION":105,
				"NORMAL":106,
				"TEXCOORD_0":107
			},
			"indices":104,
			"material":4
		}]
	},
	{
		"name":"Cap 1",
		"primitives":[{
			"attributes":{
				"POSITION":109,
				"NORMAL":110,
				"TEXCOORD_0":111
			},
			"indices":108,
			"material":4
		}]
	},
	{
		"name":"Rounding 2",
		"primitives":[{
			"attributes":{
				"POSITION":113,
				"NORMAL":114,
				"TEXCOORD_0":115
			},
			"indices":112,
			"material":4
		}]
	},
	{
		"name":"Cap 2",
		"primitives":[{
			"attributes":{
				"POSITION":117,
				"NORMAL":118,
				"TEXCOORD_0":119
			},
			"indices":116,
			"material":4
		}]
	}],
	"accessors":[{
		"bufferView":0,
		"type":"SCALAR",
		"componentType":5123,
		"count":42,
		"byteOffset":0,
		"min":[0],
		"max":[27]
	},
	{
		"bufferView":1,
		"type":"VEC3",
		"componentType":5126,
		"count":28,
		"byteOffset":0,
		"min":[-6.349491119384766,
		-3.9096319675445558,
		-2.002885103225708],
		"max":[6.315148830413818,
		3.9096319675445558,
		6.661338147750939e-16]
	},
	{
		"bufferView":1,
		"type":"VEC3",
		"componentType":5126,
		"count":28,
		"byteOffset":12,
		"min":[-0.9999989867210388,
		-1.0,
		0.0],
		"max":[1.0,
		1.0,
		0.0]
	},
	{
		"bufferView":1,
		"type":"VEC2",
		"componentType":5126,
		"count":28,
		"byteOffset":24,
		"min":[0.0,
		0.0],
		"max":[1.0,
		1.0]
	},
	{
		"bufferView":2,
		"type":"SCALAR",
		"componentType":5123,
		"count":294,
		"byteOffset":0,
		"min":[0],
		"max":[225]
	},
	{
		"bufferView":3,
		"type":"VEC3",
		"componentType":5126,
		"count":226,
		"byteOffset":0,
		"min":[-6.349491119384766,
		-3.9096319675445558,
		0.0],
		"max":[6.315148830413818,
		3.9096319675445558,
		0.0400577038526535]
	},
	{
		"bufferView":3,
		"type":"VEC3",
		"componentType":5126,
		"count":226,
		"byteOffset":12,
		"min":[-0.9948205351829529,
		-0.9951926469802856,
		0.08353038132190705],
		"max":[0.9937077760696411,
		0.9937106370925903,
		0.9937121868133545]
	},
	{
		"bufferView":3,
		"type":"VEC2",
		"componentType":5126,
		"count":226,
		"byteOffset":24,
		"min":[-0.000061034224927425387,
		-0.000061034224927425387],
		"max":[6.096605352530202e28,
		1.0]
	},
	{
		"bufferView":4,
		"type":"SCALAR",
		"componentType":5123,
		"count":15,
		"byteOffset":0,
		"min":[0],
		"max":[13]
	},
	{
		"bufferView":5,
		"type":"VEC3",
		"componentType":5126,
		"count":14,
		"byteOffset":0,
		"min":[-6.275091171264648,
		-3.8695743083953859,
		0.0400577038526535],
		"max":[6.275091171264648,
		3.8695743083953859,
		0.0400577038526535]
	},
	{
		"bufferView":5,
		"type":"VEC3",
		"componentType":5126,
		"count":14,
		"byteOffset":12,
		"min":[0.0,
		0.0,
		1.0],
		"max":[0.0,
		0.0,
		1.0]
	},
	{
		"bufferView":5,
		"type":"VEC2",
		"componentType":5126,
		"count":14,
		"byteOffset":24,
		"min":[0.0,
		0.0],
		"max":[0.636086106300354,
		1.0]
	},
	{
		"bufferView":6,
		"type":"SCALAR",
		"componentType":5123,
		"count":294,
		"byteOffset":0,
		"min":[0],
		"max":[212]
	},
	{
		"bufferView":7,
		"type":"VEC3",
		"componentType":5126,
		"count":213,
		"byteOffset":0,
		"min":[-6.349491119384766,
		-3.9096319675445558,
		-2.042943000793457],
		"max":[6.315148830413818,
		3.9096319675445558,
		-2.002885103225708]
	},
	{
		"bufferView":7,
		"type":"VEC3",
		"componentType":5126,
		"count":213,
		"byteOffset":12,
		"min":[-0.9948205351829529,
		-0.9951927661895752,
		-0.9937121868133545],
		"max":[0.9937078356742859,
		0.9937108159065247,
		-0.08352966606616974]
	},
	{
		"bufferView":7,
		"type":"VEC2",
		"componentType":5126,
		"count":213,
		"byteOffset":24,
		"min":[-0.000061034224927425387,
		-0.000061034224927425387],
		"max":[6.096605352530202e28,
		1.0]
	},
	{
		"bufferView":8,
		"type":"SCALAR",
		"componentType":5123,
		"count":15,
		"byteOffset":0,
		"min":[0],
		"max":[12]
	},
	{
		"bufferView":9,
		"type":"VEC3",
		"componentType":5126,
		"count":13,
		"byteOffset":0,
		"min":[-6.275091171264648,
		-3.8695743083953859,
		-2.042943000793457],
		"max":[6.275091171264648,
		3.8695743083953859,
		-2.042943000793457]
	},
	{
		"bufferView":9,
		"type":"VEC3",
		"componentType":5126,
		"count":13,
		"byteOffset":12,
		"min":[0.0,
		0.0,
		-1.0],
		"max":[0.0,
		0.0,
		-1.0]
	},
	{
		"bufferView":9,
		"type":"VEC2",
		"componentType":5126,
		"count":13,
		"byteOffset":24,
		"min":[0.0,
		0.0],
		"max":[0.636086106300354,
		1.0]
	},
	{
		"bufferView":10,
		"type":"SCALAR",
		"componentType":5123,
		"count":36,
		"byteOffset":0,
		"min":[0],
		"max":[23]
	},
	{
		"bufferView":11,
		"type":"VEC3",
		"componentType":5126,
		"count":24,
		"byteOffset":0,
		"min":[-1.254701018333435,
		-1.6623947620391846,
		-2.002885103225708],
		"max":[1.2771965265274048,
		1.6623947620391846,
		-2.220446049250313e-16]
	},
	{
		"bufferView":11,
		"type":"VEC3",
		"componentType":5126,
		"count":24,
		"byteOffset":12,
		"min":[-0.8142542839050293,
		-0.9999859929084778,
		0.0],
		"max":[0.7635753750801086,
		0.9999871850013733,
		0.0]
	},
	{
		"bufferView":11,
		"type":"VEC2",
		"componentType":5126,
		"count":24,
		"byteOffset":24,
		"min":[0.0,
		0.0],
		"max":[1.0,
		1.0]
	},
	{
		"bufferView":12,
		"type":"SCALAR",
		"componentType":5123,
		"count":252,
		"byteOffset":0,
		"min":[0],
		"max":[167]
	},
	{
		"bufferView":13,
		"type":"VEC3",
		"componentType":5126,
		"count":168,
		"byteOffset":0,
		"min":[-1.254701018333435,
		-1.6623947620391846,
		-2.9582283945787944e-31],
		"max":[1.2771965265274048,
		1.6623947620391846,
		0.0400577038526535]
	},
	{
		"bufferView":13,
		"type":"VEC3",
		"componentType":5126,
		"count":168,
		"byteOffset":12,
		"min":[-0.8091346025466919,
		-0.9946616291999817,
		0.09401142597198487],
		"max":[0.7594524621963501,
		0.9954506754875183,
		0.9937123656272888]
	},
	{
		"bufferView":13,
		"type":"VEC2",
		"componentType":5126,
		"count":168,
		"byteOffset":24,
		"min":[-2.396108050553397e30,
		-2.363343062969428e29],
		"max":[6.646088876759758e35,
		1.6615223182251426e35]
	},
	{
		"bufferView":14,
		"type":"SCALAR",
		"componentType":5123,
		"count":12,
		"byteOffset":0,
		"min":[0],
		"max":[10]
	},
	{
		"bufferView":15,
		"type":"VEC3",
		"componentType":5126,
		"count":11,
		"byteOffset":0,
		"min":[-1.2043503522872925,
		-1.622336983680725,
		0.0400577038526535],
		"max":[1.2043503522872925,
		1.622336983680725,
		0.0400577038526535]
	},
	{
		"bufferView":15,
		"type":"VEC3",
		"componentType":5126,
		"count":11,
		"byteOffset":12,
		"min":[0.0,
		0.0,
		1.0],
		"max":[0.0,
		0.0,
		1.0]
	},
	{
		"bufferView":15,
		"type":"VEC2",
		"componentType":5126,
		"count":11,
		"byteOffset":24,
		"min":[0.0,
		0.0],
		"max":[0.707695722579956,
		1.0]
	},
	{
		"bufferView":16,
		"type":"SCALAR",
		"componentType":5123,
		"count":252,
		"byteOffset":0,
		"min":[0],
		"max":[180]
	},
	{
		"bufferView":17,
		"type":"VEC3",
		"componentType":5126,
		"count":181,
		"byteOffset":0,
		"min":[-1.254701018333435,
		-1.6623947620391846,
		-2.042943000793457],
		"max":[1.2771965265274048,
		1.6623947620391846,
		-2.002885103225708]
	},
	{
		"bufferView":17,
		"type":"VEC3",
		"componentType":5126,
		"count":181,
		"byteOffset":12,
		"min":[-0.8091346621513367,
		-0.9946617484092712,
		-0.9937107563018799],
		"max":[0.7594525218009949,
		0.9954507946968079,
		-0.0940106213092804]
	},
	{
		"bufferView":17,
		"type":"VEC2",
		"componentType":5126,
		"count":181,
		"byteOffset":24,
		"min":[-2.396108050553397e30,
		-2.363343062969428e29],
		"max":[6.646088876759758e35,
		1.6615223182251426e35]
	},
	{
		"bufferView":18,
		"type":"SCALAR",
		"componentType":5123,
		"count":12,
		"byteOffset":0,
		"min":[0],
		"max":[9]
	},
	{
		"bufferView":19,
		"type":"VEC3",
		"componentType":5126,
		"count":10,
		"byteOffset":0,
		"min":[-1.2043503522872925,
		-1.622336983680725,
		-2.042943000793457],
		"max":[1.2043503522872925,
		1.622336983680725,
		-2.042943000793457]
	},
	{
		"bufferView":19,
		"type":"VEC3",
		"componentType":5126,
		"count":10,
		"byteOffset":12,
		"min":[0.0,
		0.0,
		-1.0],
		"max":[0.0,
		0.0,
		-1.0]
	},
	{
		"bufferView":19,
		"type":"VEC2",
		"componentType":5126,
		"count":10,
		"byteOffset":24,
		"min":[0.0,
		0.0],
		"max":[0.707695722579956,
		1.0]
	},
	{
		"bufferView":20,
		"type":"SCALAR",
		"componentType":5123,
		"count":24,
		"byteOffset":0,
		"min":[0],
		"max":[15]
	},
	{
		"bufferView":21,
		"type":"VEC3",
		"componentType":5126,
		"count":16,
		"byteOffset":0,
		"min":[-0.5100480914115906,
		-1.6623947620391846,
		-2.002885103225708],
		"max":[0.5100480914115906,
		1.6623947620391846,
		-1.9721522630525297e-31]
	},
	{
		"bufferView":21,
		"type":"VEC3",
		"componentType":5126,
		"count":16,
		"byteOffset":12,
		"min":[-1.0,
		-1.0,
		0.0],
		"max":[1.0,
		1.0,
		0.0]
	},
	{
		"bufferView":21,
		"type":"VEC2",
		"componentType":5126,
		"count":16,
		"byteOffset":24,
		"min":[0.0,
		0.0],
		"max":[1.0,
		1.0]
	},
	{
		"bufferView":22,
		"type":"SCALAR",
		"componentType":5123,
		"count":168,
		"byteOffset":0,
		"min":[0],
		"max":[151]
	},
	{
		"bufferView":23,
		"type":"VEC3",
		"componentType":5126,
		"count":152,
		"byteOffset":0,
		"min":[-0.5100480914115906,
		-1.6623947620391846,
		0.0],
		"max":[0.5100480914115906,
		1.6623947620391846,
		0.0400577038526535]
	},
	{
		"bufferView":23,
		"type":"VEC3",
		"componentType":5126,
		"count":152,
		"byteOffset":12,
		"min":[-0.9937121272087097,
		-0.9937121868133545,
		0.1119653508067131],
		"max":[0.9937121272087097,
		0.9937121868133545,
		0.993712306022644]
	},
	{
		"bufferView":23,
		"type":"VEC2",
		"componentType":5126,
		"count":152,
		"byteOffset":24,
		"min":[-107374184.0,
		-131070.0],
		"max":[2.9832964682085108e28,
		1.875]
	},
	{
		"bufferView":24,
		"type":"SCALAR",
		"componentType":5123,
		"count":6,
		"byteOffset":0,
		"min":[0],
		"max":[5]
	},
	{
		"bufferView":25,
		"type":"VEC3",
		"componentType":5126,
		"count":6,
		"byteOffset":0,
		"min":[-0.4699903726577759,
		-1.622336983680725,
		0.0400577038526535],
		"max":[0.4699903726577759,
		1.622336983680725,
		0.0400577038526535]
	},
	{
		"bufferView":25,
		"type":"VEC3",
		"componentType":5126,
		"count":6,
		"byteOffset":12,
		"min":[0.0,
		0.0,
		1.0],
		"max":[0.0,
		0.0,
		1.0]
	},
	{
		"bufferView":25,
		"type":"VEC2",
		"componentType":5126,
		"count":6,
		"byteOffset":24,
		"min":[0.0,
		0.0],
		"max":[0.5,
		1.0]
	},
	{
		"bufferView":26,
		"type":"SCALAR",
		"componentType":5123,
		"count":168,
		"byteOffset":0,
		"min":[0],
		"max":[145]
	},
	{
		"bufferView":27,
		"type":"VEC3",
		"componentType":5126,
		"count":146,
		"byteOffset":0,
		"min":[-0.5100480914115906,
		-1.6623947620391846,
		-2.042943000793457],
		"max":[0.5100480914115906,
		1.6623947620391846,
		-2.002885103225708]
	},
	{
		"bufferView":27,
		"type":"VEC3",
		"componentType":5126,
		"count":146,
		"byteOffset":12,
		"min":[-0.993712306022644,
		-0.993712306022644,
		-0.9937108159065247],
		"max":[0.993712306022644,
		0.993712306022644,
		-0.1119643896818161]
	},
	{
		"bufferView":27,
		"type":"VEC2",
		"componentType":5126,
		"count":146,
		"byteOffset":24,
		"min":[-107374184.0,
		-131070.0],
		"max":[2.9832964682085108e28,
		1.875]
	},
	{
		"bufferView":28,
		"type":"SCALAR",
		"componentType":5123,
		"count":6,
		"byteOffset":0,
		"min":[0],
		"max":[5]
	},
	{
		"bufferView":29,
		"type":"VEC3",
		"componentType":5126,
		"count":6,
		"byteOffset":0,
		"min":[-0.4699903726577759,
		-1.622336983680725,
		-2.042943000793457],
		"max":[0.4699903726577759,
		1.622336983680725,
		-2.042943000793457]
	},
	{
		"bufferView":29,
		"type":"VEC3",
		"componentType":5126,
		"count":6,
		"byteOffset":12,
		"min":[0.0,
		0.0,
		-1.0],
		"max":[0.0,
		0.0,
		-1.0]
	},
	{
		"bufferView":29,
		"type":"VEC2",
		"componentType":5126,
		"count":6,
		"byteOffset":24,
		"min":[0.0,
		0.0],
		"max":[0.5,
		1.0]
	},
	{
		"bufferView":30,
		"type":"SCALAR",
		"componentType":5123,
		"count":72,
		"byteOffset":0,
		"min":[0],
		"max":[47]
	},
	{
		"bufferView":31,
		"type":"VEC3",
		"componentType":5126,
		"count":48,
		"byteOffset":0,
		"min":[-1.3379273414611817,
		-1.6623947620391846,
		-2.002885103225708],
		"max":[1.3379273414611817,
		1.6623947620391846,
		4.440892098500626e-16]
	},
	{
		"bufferView":31,
		"type":"VEC3",
		"componentType":5126,
		"count":48,
		"byteOffset":12,
		"min":[-1.0,
		-1.0,
		0.0],
		"max":[1.0,
		1.0,
		0.0]
	},
	{
		"bufferView":31,
		"type":"VEC2",
		"componentType":5126,
		"count":48,
		"byteOffset":24,
		"min":[0.0,
		0.0],
		"max":[1.0,
		1.0]
	},
	{
		"bufferView":32,
		"type":"SCALAR",
		"componentType":5123,
		"count":504,
		"byteOffset":0,
		"min":[0],
		"max":[461]
	},
	{
		"bufferView":33,
		"type":"VEC3",
		"componentType":5126,
		"count":462,
		"byteOffset":0,
		"min":[-1.3379273414611817,
		-1.6623947620391846,
		0.0],
		"max":[1.3379273414611817,
		1.6623947620391846,
		0.0400577038526535]
	},
	{
		"bufferView":33,
		"type":"VEC3",
		"componentType":5126,
		"count":462,
		"byteOffset":12,
		"min":[-0.9937121272087097,
		-0.9937121868133545,
		0.11196207255125046],
		"max":[0.9937121868133545,
		0.9937124848365784,
		0.993712306022644]
	},
	{
		"bufferView":33,
		"type":"VEC2",
		"componentType":5126,
		"count":462,
		"byteOffset":24,
		"min":[-436231872.0,
		-4703.75],
		"max":[2.1644440752475019e34,
		52621.0]
	},
	{
		"bufferView":34,
		"type":"SCALAR",
		"componentType":5123,
		"count":30,
		"byteOffset":0,
		"min":[0],
		"max":[26]
	},
	{
		"bufferView":35,
		"type":"VEC3",
		"componentType":5126,
		"count":27,
		"byteOffset":0,
		"min":[-1.2978695631027222,
		-1.622336983680725,
		0.0400577038526535],
		"max":[1.2978695631027222,
		1.622336983680725,
		0.0400577038526535]
	},
	{
		"bufferView":35,
		"type":"VEC3",
		"componentType":5126,
		"count":27,
		"byteOffset":12,
		"min":[0.0,
		0.0,
		1.0],
		"max":[0.0,
		0.0,
		1.0]
	},
	{
		"bufferView":35,
		"type":"VEC2",
		"componentType":5126,
		"count":27,
		"byteOffset":24,
		"min":[0.0,
		0.0],
		"max":[0.7946428060531616,
		1.0]
	},
	{
		"bufferView":36,
		"type":"SCALAR",
		"componentType":5123,
		"count":504,
		"byteOffset":0,
		"min":[0],
		"max":[430]
	},
	{
		"bufferView":37,
		"type":"VEC3",
		"componentType":5126,
		"count":431,
		"byteOffset":0,
		"min":[-1.3379273414611817,
		-1.6623947620391846,
		-2.042943000793457],
		"max":[1.3379273414611817,
		1.6623947620391846,
		-2.002885103225708]
	},
	{
		"bufferView":37,
		"type":"VEC3",
		"componentType":5126,
		"count":431,
		"byteOffset":12,
		"min":[-0.993712306022644,
		-0.993712306022644,
		-0.9937108159065247],
		"max":[0.993712306022644,
		0.9937126040458679,
		-0.11196111142635346]
	},
	{
		"bufferView":37,
		"type":"VEC2",
		"componentType":5126,
		"count":431,
		"byteOffset":24,
		"min":[-101332.0,
		-4703.75],
		"max":[1.8641167268667703e33,
		52621.0]
	},
	{
		"bufferView":38,
		"type":"SCALAR",
		"componentType":5123,
		"count":30,
		"byteOffset":0,
		"min":[0],
		"max":[29]
	},
	{
		"bufferView":39,
		"type":"VEC3",
		"componentType":5126,
		"count":30,
		"byteOffset":0,
		"min":[-1.2978695631027222,
		-1.622336983680725,
		-2.042943000793457],
		"max":[1.2978695631027222,
		1.622336983680725,
		-2.042943000793457]
	},
	{
		"bufferView":39,
		"type":"VEC3",
		"componentType":5126,
		"count":30,
		"byteOffset":12,
		"min":[0.0,
		0.0,
		-1.0],
		"max":[0.0,
		0.0,
		-1.0]
	},
	{
		"bufferView":39,
		"type":"VEC2",
		"componentType":5126,
		"count":30,
		"byteOffset":24,
		"min":[0.0,
		0.0],
		"max":[0.7946428060531616,
		1.0]
	},
	{
		"bufferView":40,
		"type":"SCALAR",
		"componentType":5123,
		"count":72,
		"byteOffset":0,
		"min":[0],
		"max":[47]
	},
	{
		"bufferView":41,
		"type":"VEC3",
		"componentType":5126,
		"count":48,
		"byteOffset":0,
		"min":[-1.3379273414611817,
		-1.6623947620391846,
		-2.002885103225708],
		"max":[1.3379273414611817,
		1.6623947620391846,
		3.944304526105059e-31]
	},
	{
		"bufferView":41,
		"type":"VEC3",
		"componentType":5126,
		"count":48,
		"byteOffset":12,
		"min":[-1.0,
		-1.0,
		0.0],
		"max":[1.0,
		1.0,
		0.0]
	},
	{
		"bufferView":41,
		"type":"VEC2",
		"componentType":5126,
		"count":48,
		"byteOffset":24,
		"min":[0.0,
		0.0],
		"max":[1.0,
		1.0]
	},
	{
		"bufferView":42,
		"type":"SCALAR",
		"componentType":5123,
		"count":504,
		"byteOffset":0,
		"min":[0],
		"max":[465]
	},
	{
		"bufferView":43,
		"type":"VEC3",
		"componentType":5126,
		"count":466,
		"byteOffset":0,
		"min":[-1.3379273414611817,
		-1.6623947620391846,
		-1.9721522630525297e-31],
		"max":[1.3379273414611817,
		1.6623947620391846,
		0.0400577038526535]
	},
	{
		"bufferView":43,
		"type":"VEC3",
		"componentType":5126,
		"count":466,
		"byteOffset":12,
		"min":[-0.9937121272087097,
		-0.9937121868133545,
		0.11196207255125046],
		"max":[0.9937121868133545,
		0.9937124848365784,
		0.993712306022644]
	},
	{
		"bufferView":43,
		"type":"VEC2",
		"componentType":5126,
		"count":466,
		"byteOffset":24,
		"min":[-101332.0,
		-4703.75],
		"max":[1.8641167268667703e33,
		52621.0]
	},
	{
		"bufferView":44,
		"type":"SCALAR",
		"componentType":5123,
		"count":30,
		"byteOffset":0,
		"min":[0],
		"max":[26]
	},
	{
		"bufferView":45,
		"type":"VEC3",
		"componentType":5126,
		"count":27,
		"byteOffset":0,
		"min":[-1.2978695631027222,
		-1.622336983680725,
		0.0400577038526535],
		"max":[1.2978695631027222,
		1.622336983680725,
		0.0400577038526535]
	},
	{
		"bufferView":45,
		"type":"VEC3",
		"componentType":5126,
		"count":27,
		"byteOffset":12,
		"min":[0.0,
		0.0,
		1.0],
		"max":[0.0,
		0.0,
		1.0]
	},
	{
		"bufferView":45,
		"type":"VEC2",
		"componentType":5126,
		"count":27,
		"byteOffset":24,
		"min":[0.0,
		0.0],
		"max":[0.7946428060531616,
		1.0]
	},
	{
		"bufferView":46,
		"type":"SCALAR",
		"componentType":5123,
		"count":504,
		"byteOffset":0,
		"min":[0],
		"max":[456]
	},
	{
		"bufferView":47,
		"type":"VEC3",
		"componentType":5126,
		"count":457,
		"byteOffset":0,
		"min":[-1.3379273414611817,
		-1.6623947620391846,
		-2.042943000793457],
		"max":[1.3379273414611817,
		1.6623947620391846,
		-2.002885103225708]
	},
	{
		"bufferView":47,
		"type":"VEC3",
		"componentType":5126,
		"count":457,
		"byteOffset":12,
		"min":[-0.993712306022644,
		-0.993712306022644,
		-0.9937108159065247],
		"max":[0.993712306022644,
		0.9937126040458679,
		-0.11196111142635346]
	},
	{
		"bufferView":47,
		"type":"VEC2",
		"componentType":5126,
		"count":457,
		"byteOffset":24,
		"min":[-1.0986495019450679e35,
		-67346.0],
		"max":[1.8641167268667703e33,
		52621.0]
	},
	{
		"bufferView":48,
		"type":"SCALAR",
		"componentType":5123,
		"count":30,
		"byteOffset":0,
		"min":[0],
		"max":[29]
	},
	{
		"bufferView":49,
		"type":"VEC3",
		"componentType":5126,
		"count":30,
		"byteOffset":0,
		"min":[-1.2978695631027222,
		-1.622336983680725,
		-2.042943000793457],
		"max":[1.2978695631027222,
		1.622336983680725,
		-2.042943000793457]
	},
	{
		"bufferView":49,
		"type":"VEC3",
		"componentType":5126,
		"count":30,
		"byteOffset":12,
		"min":[0.0,
		0.0,
		-1.0],
		"max":[0.0,
		0.0,
		-1.0]
	},
	{
		"bufferView":49,
		"type":"VEC2",
		"componentType":5126,
		"count":30,
		"byteOffset":24,
		"min":[0.0,
		0.0],
		"max":[0.7946428060531616,
		1.0]
	},
	{
		"bufferView":50,
		"type":"SCALAR",
		"componentType":5123,
		"count":48,
		"byteOffset":0,
		"min":[0],
		"max":[31]
	},
	{
		"bufferView":51,
		"type":"VEC3",
		"componentType":5126,
		"count":32,
		"byteOffset":0,
		"min":[-1.3138927221298218,
		-1.6623947620391846,
		-2.002885103225708],
		"max":[1.3138927221298218,
		1.6623947620391846,
		4.440892098500626e-16]
	},
	{
		"bufferView":51,
		"type":"VEC3",
		"componentType":5126,
		"count":32,
		"byteOffset":12,
		"min":[-1.0,
		-1.0,
		0.0],
		"max":[1.0,
		1.0,
		0.0]
	},
	{
		"bufferView":51,
		"type":"VEC2",
		"componentType":5126,
		"count":32,
		"byteOffset":24,
		"min":[0.0,
		0.0],
		"max":[1.0,
		1.0]
	},
	{
		"bufferView":52,
		"type":"SCALAR",
		"componentType":5123,
		"count":336,
		"byteOffset":0,
		"min":[0],
		"max":[233]
	},
	{
		"bufferView":53,
		"type":"VEC3",
		"componentType":5126,
		"count":234,
		"byteOffset":0,
		"min":[-1.3138927221298218,
		-1.6623947620391846,
		9.860761315262648e-32],
		"max":[1.3138927221298218,
		1.6623947620391846,
		0.0400577038526535]
	},
	{
		"bufferView":53,
		"type":"VEC3",
		"componentType":5126,
		"count":234,
		"byteOffset":12,
		"min":[-0.9937121868133545,
		-0.9937121272087097,
		0.11195879429578781],
		"max":[0.9937122464179993,
		0.9937129020690918,
		0.9937123656272888]
	},
	{
		"bufferView":53,
		"type":"VEC2",
		"componentType":5126,
		"count":234,
		"byteOffset":24,
		"min":[-107374184.0,
		0.0],
		"max":[1.0,
		1.7874999046325684]
	},
	{
		"bufferView":54,
		"type":"SCALAR",
		"componentType":5123,
		"count":18,
		"byteOffset":0,
		"min":[0],
		"max":[15]
	},
	{
		"bufferView":55,
		"type":"VEC3",
		"componentType":5126,
		"count":16,
		"byteOffset":0,
		"min":[-1.2738349437713624,
		-1.622336983680725,
		0.0400577038526535],
		"max":[1.2738349437713624,
		1.622336983680725,
		0.0400577038526535]
	},
	{
		"bufferView":55,
		"type":"VEC3",
		"componentType":5126,
		"count":16,
		"byteOffset":12,
		"min":[0.0,
		0.0,
		1.0],
		"max":[0.0,
		0.0,
		1.0]
	},
	{
		"bufferView":55,
		"type":"VEC2",
		"componentType":5126,
		"count":16,
		"byteOffset":24,
		"min":[0.0,
		0.0],
		"max":[0.7083332538604736,
		1.0]
	},
	{
		"bufferView":56,
		"type":"SCALAR",
		"componentType":5123,
		"count":336,
		"byteOffset":0,
		"min":[0],
		"max":[247]
	},
	{
		"bufferView":57,
		"type":"VEC3",
		"componentType":5126,
		"count":248,
		"byteOffset":0,
		"min":[-1.3138927221298218,
		-1.6623947620391846,
		-2.042943000793457],
		"max":[1.3138927221298218,
		1.6623947620391846,
		-2.002885103225708]
	},
	{
		"bufferView":57,
		"type":"VEC3",
		"componentType":5126,
		"count":248,
		"byteOffset":12,
		"min":[-0.993712306022644,
		-0.993712306022644,
		-0.9937108159065247],
		"max":[0.993712306022644,
		0.9937130212783814,
		-0.11195783317089081]
	},
	{
		"bufferView":57,
		"type":"VEC2",
		"componentType":5126,
		"count":248,
		"byteOffset":24,
		"min":[-107374184.0,
		0.0],
		"max":[1.0,
		1.7874999046325684]
	},
	{
		"bufferView":58,
		"type":"SCALAR",
		"componentType":5123,
		"count":18,
		"byteOffset":0,
		"min":[0],
		"max":[14]
	},
	{
		"bufferView":59,
		"type":"VEC3",
		"componentType":5126,
		"count":15,
		"byteOffset":0,
		"min":[-1.2738349437713624,
		-1.622336983680725,
		-2.042943000793457],
		"max":[1.2738349437713624,
		1.622336983680725,
		-2.042943000793457]
	},
	{
		"bufferView":59,
		"type":"VEC3",
		"componentType":5126,
		"count":15,
		"byteOffset":12,
		"min":[0.0,
		0.0,
		-1.0],
		"max":[0.0,
		0.0,
		-1.0]
	},
	{
		"bufferView":59,
		"type":"VEC2",
		"componentType":5126,
		"count":15,
		"byteOffset":24,
		"min":[0.0,
		0.0],
		"max":[0.7083332538604736,
		1.0]
	}],
	"bufferViews":[{
		"buffer":0,
		"byteOffset":0,
		"byteLength":84,
		"target":34963
	},
	{
		"buffer":0,
		"byteOffset":84,
		"byteLength":896,
		"target":34962,
		"byteStride":32
	},
	{
		"buffer":1,
		"byteOffset":0,
		"byteLength":588,
		"target":34963
	},
	{
		"buffer":1,
		"byteOffset":588,
		"byteLength":7232,
		"target":34962,
		"byteStride":32
	},
	{
		"buffer":2,
		"byteOffset":0,
		"byteLength":30,
		"target":34963
	},
	{
		"buffer":2,
		"byteOffset":32,
		"byteLength":448,
		"target":34962,
		"byteStride":32
	},
	{
		"buffer":3,
		"byteOffset":0,
		"byteLength":588,
		"target":34963
	},
	{
		"buffer":3,
		"byteOffset":588,
		"byteLength":6816,
		"target":34962,
		"byteStride":32
	},
	{
		"buffer":4,
		"byteOffset":0,
		"byteLength":30,
		"target":34963
	},
	{
		"buffer":4,
		"byteOffset":32,
		"byteLength":416,
		"target":34962,
		"byteStride":32
	},
	{
		"buffer":5,
		"byteOffset":0,
		"byteLength":72,
		"target":34963
	},
	{
		"buffer":5,
		"byteOffset":72,
		"byteLength":768,
		"target":34962,
		"byteStride":32
	},
	{
		"buffer":6,
		"byteOffset":0,
		"byteLength":504,
		"target":34963
	},
	{
		"buffer":6,
		"byteOffset":504,
		"byteLength":5376,
		"target":34962,
		"byteStride":32
	},
	{
		"buffer":7,
		"byteOffset":0,
		"byteLength":24,
		"target":34963
	},
	{
		"buffer":7,
		"byteOffset":24,
		"byteLength":352,
		"target":34962,
		"byteStride":32
	},
	{
		"buffer":8,
		"byteOffset":0,
		"byteLength":504,
		"target":34963
	},
	{
		"buffer":8,
		"byteOffset":504,
		"byteLength":5792,
		"target":34962,
		"byteStride":32
	},
	{
		"buffer":9,
		"byteOffset":0,
		"byteLength":24,
		"target":34963
	},
	{
		"buffer":9,
		"byteOffset":24,
		"byteLength":320,
		"target":34962,
		"byteStride":32
	},
	{
		"buffer":10,
		"byteOffset":0,
		"byteLength":48,
		"target":34963
	},
	{
		"buffer":10,
		"byteOffset":48,
		"byteLength":512,
		"target":34962,
		"byteStride":32
	},
	{
		"buffer":11,
		"byteOffset":0,
		"byteLength":336,
		"target":34963
	},
	{
		"buffer":11,
		"byteOffset":336,
		"byteLength":4864,
		"target":34962,
		"byteStride":32
	},
	{
		"buffer":12,
		"byteOffset":0,
		"byteLength":12,
		"target":34963
	},
	{
		"buffer":12,
		"byteOffset":12,
		"byteLength":192,
		"target":34962,
		"byteStride":32
	},
	{
		"buffer":13,
		"byteOffset":0,
		"byteLength":336,
		"target":34963
	},
	{
		"buffer":13,
		"byteOffset":336,
		"byteLength":4672,
		"target":34962,
		"byteStride":32
	},
	{
		"buffer":14,
		"byteOffset":0,
		"byteLength":12,
		"target":34963
	},
	{
		"buffer":14,
		"byteOffset":12,
		"byteLength":192,
		"target":34962,
		"byteStride":32
	},
	{
		"buffer":15,
		"byteOffset":0,
		"byteLength":144,
		"target":34963
	},
	{
		"buffer":15,
		"byteOffset":144,
		"byteLength":1536,
		"target":34962,
		"byteStride":32
	},
	{
		"buffer":16,
		"byteOffset":0,
		"byteLength":1008,
		"target":34963
	},
	{
		"buffer":16,
		"byteOffset":1008,
		"byteLength":14784,
		"target":34962,
		"byteStride":32
	},
	{
		"buffer":17,
		"byteOffset":0,
		"byteLength":60,
		"target":34963
	},
	{
		"buffer":17,
		"byteOffset":60,
		"byteLength":864,
		"target":34962,
		"byteStride":32
	},
	{
		"buffer":18,
		"byteOffset":0,
		"byteLength":1008,
		"target":34963
	},
	{
		"buffer":18,
		"byteOffset":1008,
		"byteLength":13792,
		"target":34962,
		"byteStride":32
	},
	{
		"buffer":19,
		"byteOffset":0,
		"byteLength":60,
		"target":34963
	},
	{
		"buffer":19,
		"byteOffset":60,
		"byteLength":960,
		"target":34962,
		"byteStride":32
	},
	{
		"buffer":20,
		"byteOffset":0,
		"byteLength":144,
		"target":34963
	},
	{
		"buffer":20,
		"byteOffset":144,
		"byteLength":1536,
		"target":34962,
		"byteStride":32
	},
	{
		"buffer":21,
		"byteOffset":0,
		"byteLength":1008,
		"target":34963
	},
	{
		"buffer":21,
		"byteOffset":1008,
		"byteLength":14912,
		"target":34962,
		"byteStride":32
	},
	{
		"buffer":22,
		"byteOffset":0,
		"byteLength":60,
		"target":34963
	},
	{
		"buffer":22,
		"byteOffset":60,
		"byteLength":864,
		"target":34962,
		"byteStride":32
	},
	{
		"buffer":23,
		"byteOffset":0,
		"byteLength":1008,
		"target":34963
	},
	{
		"buffer":23,
		"byteOffset":1008,
		"byteLength":14624,
		"target":34962,
		"byteStride":32
	},
	{
		"buffer":24,
		"byteOffset":0,
		"byteLength":60,
		"target":34963
	},
	{
		"buffer":24,
		"byteOffset":60,
		"byteLength":960,
		"target":34962,
		"byteStride":32
	},
	{
		"buffer":25,
		"byteOffset":0,
		"byteLength":96,
		"target":34963
	},
	{
		"buffer":25,
		"byteOffset":96,
		"byteLength":1024,
		"target":34962,
		"byteStride":32
	},
	{
		"buffer":26,
		"byteOffset":0,
		"byteLength":672,
		"target":34963
	},
	{
		"buffer":26,
		"byteOffset":672,
		"byteLength":7488,
		"target":34962,
		"byteStride":32
	},
	{
		"buffer":27,
		"byteOffset":0,
		"byteLength":36,
		"target":34963
	},
	{
		"buffer":27,
		"byteOffset":36,
		"byteLength":512,
		"target":34962,
		"byteStride":32
	},
	{
		"buffer":28,
		"byteOffset":0,
		"byteLength":672,
		"target":34963
	},
	{
		"buffer":28,
		"byteOffset":672,
		"byteLength":7936,
		"target":34962,
		"byteStride":32
	},
	{
		"buffer":29,
		"byteOffset":0,
		"byteLength":36,
		"target":34963
	},
	{
		"buffer":29,
		"byteOffset":36,
		"byteLength":480,
		"target":34962,
		"byteStride":32
	}],
	"buffers":[{
		"uri":"data:application/octet-stream;base64,",
		"byteLength":980
	},
	{
		"uri":"data:application/octet-stream;base64,",
		"byteLength":7820
	},
	{
		"uri":"data:application/octet-stream;base64,",
		"byteLength":480
	},
	{
		"uri":"data:application/octet-stream;base64,",
		"byteLength":7404
	},
	{
		"uri":"data:application/octet-stream;base64,",
		"byteLength":448
	},
	{
		"uri":"data:application/octet-stream;base64,",
		"byteLength":840
	},
	{
		"uri":"data:application/octet-stream;base64,",
		"byteLength":5880
	},
	{
		"uri":"data:application/octet-stream;base64,",
		"byteLength":376
	},
	{
		"uri":"data:application/octet-stream;base64,",
		"byteLength":6296
	},
	{
		"uri":"data:application/octet-stream;base64,",
		"byteLength":344
	},
	{
		"uri":"data:application/octet-stream;base64,",
		"byteLength":560
	},
	{
		"uri":"data:application/octet-stream;base64,",
		"byteLength":5200
	},
	{
		"uri":"data:application/octet-stream;base64,",
		"byteLength":204
	},
	{
		"uri":"data:application/octet-stream;base64,",
		"byteLength":5008
	},
	{
		"uri":"data:application/octet-stream;base64,",
		"byteLength":204
	},
	{
		"uri":"data:application/octet-stream;base64,",
		"byteLength":1680
	},
	{
		"uri":"data:application/octet-stream;base64,",
		"byteLength":15792
	},
	{
		"uri":"data:application/octet-stream;base64,",
		"byteLength":924
	},
	{
		"uri":"data:application/octet-stream;base64,",
		"byteLength":14800
	},
	{
		"uri":"data:application/octet-stream;base64,",
		"byteLength":1020
	},
	{
		"uri":"data:application/octet-stream;base64,",
		"byteLength":1680
	},
	{
		"uri":"data:application/octet-stream;base64,",
		"byteLength":15920
	},
	{
		"uri":"data:application/octet-stream;base64,",
		"byteLength":924
	},
	{
		"uri":"data:application/octet-stream;base64,",
		"byteLength":15632
	},
	{
		"uri":"data:application/octet-stream;base64,",
		"byteLength":1020
	},
	{
		"uri":"data:application/octet-stream;base64,",
		"byteLength":1120
	},
	{
		"uri":"data:application/octet-stream;base64,",
		"byteLength":8160
	},
	{
		"uri":"data:application/octet-stream;base64,",
		"byteLength":548
	},
	{
		"uri":"data:application/octet-stream;base64,",
		"byteLength":8608
	},
	{
		"uri":"data:application/octet-stream;base64,",
		"byteLength":516
	}],
	"materials":[{
		"pbrMetallicRoughness":{
			"baseColorFactor":[0.8,
			0.8,
			0.8,
			1.0],
			"metallicFactor":0.0,
			"roughnessFactor":0.5
		},
		"emissiveFactor":[0.0,
		0.0,
		0.0],
		"name":"A",
		"alphaMode":"OPAQUE",
		"doubleSided":true
	},
	{
		"pbrMetallicRoughness":{
			"baseColorFactor":[0.8,
			0.8,
			0.8,
			1.0],
			"metallicFactor":0.0,
			"roughnessFactor":0.5
		},
		"emissiveFactor":[0.0,
		0.0,
		0.0],
		"name":"K",
		"alphaMode":"OPAQUE",
		"doubleSided":true
	},
	{
		"pbrMetallicRoughness":{
			"baseColorFactor":[0.8,
			0.8,
			0.8,
			1.0],
			"metallicFactor":0.0,
			"roughnessFactor":0.5
		},
		"emissiveFactor":[0.0,
		0.0,
		0.0],
		"name":"E(2)",
		"alphaMode":"OPAQUE",
		"doubleSided":true
	},
	{
		"pbrMetallicRoughness":{
			"baseColorFactor":[0.8,
			0.8,
			0.8,
			1.0],
			"metallicFactor":0.0,
			"roughnessFactor":0.5
		},
		"emissiveFactor":[0.0,
		0.0,
		0.0],
		"name":"E(1)",
		"alphaMode":"OPAQUE",
		"doubleSided":true
	},
	{
		"pbrMetallicRoughness":{
			"baseColorFactor":[0.8,
			0.8,
			0.8,
			1.0],
			"metallicFactor":0.0,
			"roughnessFactor":0.5
		},
		"emissiveFactor":[0.0,
		0.0,
		0.0],
		"name":"L",
		"alphaMode":"OPAQUE",
		"doubleSided":true
	}]
}